<svg width="22" height="23" viewBox="0 0 22 23" fill="none" xmlns="http://www.w3.org/2000/svg">
<path d="M13.3178 2.67934C12.2467 1.55978 11.7111 1 11.0456 1C10.3801 1 9.84455 1.55978 8.77344 2.67934C8.13069 3.35116 7.49375 3.66307 6.5774 3.66307C5.77729 3.66307 4.63895 3.50087 4.01368 4.15992C3.39336 4.81375 3.54785 5.99869 3.54785 6.82966C3.54785 7.78749 3.24941 8.45323 2.60665 9.12507C1.53556 10.2446 1.00001 10.8044 1 11.5C1.00002 12.1956 1.53557 12.7554 2.60667 13.8749C3.32672 14.6275 3.54785 15.1135 3.54785 16.1703C3.54785 17.0066 3.39267 18.1965 4.02321 18.85C4.64875 19.4984 5.78239 19.3369 6.57738 19.3369C7.55324 19.3369 8.02317 19.5364 8.71961 20.2644C9.31266 20.8842 10.1076 22 11.0456 22C11.9836 22 12.7786 20.8842 13.3716 20.2644C14.068 19.5364 14.538 19.3369 15.5138 19.3369C16.3088 19.3369 17.4425 19.4984 18.068 18.85M19.4846 9.12507C20.5556 10.2446 21.0912 10.8044 21.0912 11.5C21.0912 12.1956 20.5556 12.7554 19.4845 13.8749C18.7645 14.6275 18.5434 15.1135 18.5434 16.1703C18.5434 17.0066 18.6985 18.1965 18.068 18.85M18.068 18.85H18.0775" stroke="#231E54" stroke-width="1.51793" stroke-linecap="round" stroke-linejoin="round"/>
<path d="M7.02686 9.72308C7.02686 9.72308 9.28712 9.4 11.0451 13.6C11.0451 13.6 16.127 3.1 21.0907 1" stroke="#231E54" stroke-width="1.51793" stroke-linecap="round" stroke-linejoin="round"/>
</svg>
