<svg width="183" height="172" viewBox="0 0 183 172" fill="none" xmlns="http://www.w3.org/2000/svg">
<path d="M116.13 9.9479C102.121 18.8948 104.655 34.9243 91.6145 45.6429C75.9903 58.4855 65.7857 57.5412 43.0213 63.27C28.0206 67.0451 15.8792 77.3717 10.6259 86.1853C0.908454 102.488 -3.15668 116.159 2.74592 134.219C10.2055 157.043 28.8332 165.522 52.2147 170.355C72.588 174.566 85.545 169.584 104.748 161.541C132.144 150.067 146.032 136.255 161.659 110.863C177.492 85.1363 185.299 52.6937 181.359 35.9479C177.488 19.4973 170.585 7.36627 154.654 2.01569C140.088 -2.87669 129.097 1.66662 116.13 9.9479Z" fill="#231E54"/>
</svg>
