<svg width="14" height="15" viewBox="0 0 14 15" fill="none" xmlns="http://www.w3.org/2000/svg">
<path d="M3.44964 10.0211C2.5233 10.5727 0.0944997 11.699 1.5738 13.1083C2.29643 13.7968 3.10125 14.2891 4.1131 14.2891H9.88697C10.8988 14.2891 11.7036 13.7968 12.4263 13.1083C13.9056 11.699 11.4768 10.5727 10.5504 10.0211C8.37819 8.72766 5.62188 8.72766 3.44964 10.0211Z" stroke="black" stroke-width="0.56" stroke-linecap="round" stroke-linejoin="round"/>
<path d="M9.94632 4.14028C9.94632 5.76754 8.62716 7.0867 6.9999 7.0867C5.37263 7.0867 4.05347 5.76754 4.05347 4.14028C4.05347 2.51301 5.37263 1.19385 6.9999 1.19385C8.62716 1.19385 9.94632 2.51301 9.94632 4.14028Z" stroke="black" stroke-width="0.56"/>
</svg>
