<svg width="29" height="24" viewBox="0 0 29 24" fill="none" xmlns="http://www.w3.org/2000/svg">
<g id="Cellular Network">
<path id="Vector 3361" d="M14.73 10.5151L14.73 22.2074" stroke="#E95B47" stroke-width="1.9487" stroke-linecap="round"/>
<path id="Ellipse 1199" d="M17.3284 7.91712C17.3284 9.3521 16.1651 10.5154 14.7301 10.5154C13.2951 10.5154 12.1318 9.3521 12.1318 7.91712C12.1318 6.48213 13.2951 5.31885 14.7301 5.31885C16.1651 5.31885 17.3284 6.48213 17.3284 7.91712Z" stroke="#E95B47" stroke-width="1.9487"/>
<path id="Vector" d="M21.1725 4.01953C22.0296 5.14927 22.5252 6.4853 22.5252 7.91694C22.5252 9.34858 22.0296 10.6846 21.1725 11.8143M8.28817 4.01953C7.43108 5.14927 6.93555 6.4853 6.93555 7.91694C6.93555 9.34858 7.43108 10.6846 8.28817 11.8143" stroke="#E95B47" stroke-width="1.9487" stroke-linecap="round" stroke-linejoin="round"/>
<path id="Vector_2" d="M25.5336 1.42139C26.9156 3.27926 27.7215 5.51346 27.7215 7.91707C27.7215 10.3207 26.9156 12.5549 25.5336 14.4127M3.92663 1.42139C2.5447 3.27926 1.73877 5.51346 1.73877 7.91707C1.73877 10.3207 2.5447 12.5549 3.92663 14.4127" stroke="#E95B47" stroke-width="1.9487" stroke-linecap="round" stroke-linejoin="round"/>
</g>
</svg>
