<svg xmlns="http://www.w3.org/2000/svg" width="17" height="17" viewBox="0 0 17 17" fill="none">
  <g clip-path="url(#clip0_390_1545)">
    <path d="M6.77035 13.1876C3.49462 14.1703 3.49462 11.5498 2.18433 11.2222M11.3564 15.1531V12.6176C11.3809 12.3052 11.3387 11.9912 11.2326 11.6964C11.1264 11.4015 10.9586 11.1327 10.7405 10.9077C12.7977 10.6784 14.9597 9.89878 14.9597 6.32169C14.9595 5.40699 14.6077 4.52738 13.9769 3.86489C14.2756 3.06464 14.2545 2.18009 13.918 1.39499C13.918 1.39499 13.1449 1.16569 11.3564 2.36461C9.85478 1.95765 8.27193 1.95765 6.77035 2.36461C4.9818 1.16569 4.20873 1.39499 4.20873 1.39499C3.87223 2.18009 3.85111 3.06464 4.14976 3.86489C3.51435 4.53229 3.16215 5.41986 3.16704 6.34134C3.16704 9.89223 5.32902 10.6719 7.38618 10.9274C7.17064 11.1501 7.0044 11.4157 6.8983 11.7069C6.7922 11.9982 6.7486 12.3085 6.77035 12.6176V15.1531" stroke="white" stroke-width="1.07137" stroke-linecap="round" stroke-linejoin="round"/>
  </g>
  <defs>
    <clipPath id="clip0_390_1545">
      <rect width="15.7235" height="15.7235" fill="white" transform="translate(0.874023 0.739868)"/>
    </clipPath>
  </defs>
</svg>