<svg width="35" height="35" viewBox="0 0 35 35" fill="none" xmlns="http://www.w3.org/2000/svg">
<g id="icons">
<path id="Icon (Stroke)" fill-rule="evenodd" clip-rule="evenodd" d="M11.3161 10.826C11.7066 10.4355 12.3398 10.4355 12.7303 10.826L17.6801 15.7757L22.6298 10.826C23.0203 10.4355 23.6535 10.4355 24.044 10.826C24.4346 11.2165 24.4346 11.8497 24.044 12.2402L19.0943 17.1899L24.044 22.1397C24.4346 22.5302 24.4346 23.1634 24.044 23.5539C23.6535 23.9444 23.0203 23.9444 22.6298 23.5539L17.6801 18.6042L12.7303 23.5539C12.3398 23.9444 11.7066 23.9444 11.3161 23.5539C10.9256 23.1634 10.9256 22.5302 11.3161 22.1397L16.2659 17.1899L11.3161 12.2402C10.9256 11.8497 10.9256 11.2165 11.3161 10.826Z" fill="black"/>
</g>
</svg>
