<svg width="31" height="31" viewBox="0 0 31 31" fill="none" xmlns="http://www.w3.org/2000/svg">
<path fill-rule="evenodd" clip-rule="evenodd" d="M18.7583 1.39155C19.7488 0.400975 21.1473 0 22.7482 0H25.6184C27.2194 0 28.6178 0.400975 29.6084 1.39155C30.599 2.38213 30.9999 3.78056 30.9999 5.38154V8.2517C30.9999 9.85268 30.599 11.2511 29.6084 12.2417C28.6178 13.2323 27.2194 13.6332 25.6184 13.6332H22.7482C21.1473 13.6332 19.7488 13.2323 18.7583 12.2417C17.7677 11.2511 17.3667 9.85268 17.3667 8.2517V5.38154C17.3667 3.78056 17.7677 2.38213 18.7583 1.39155ZM20.2804 2.91368C19.8359 3.35818 19.5193 4.11237 19.5193 5.38154V8.2517C19.5193 9.52087 19.8359 10.2751 20.2804 10.7196C20.7249 11.1641 21.4791 11.4806 22.7482 11.4806H25.6184C26.8876 11.4806 27.6418 11.1641 28.0863 10.7196C28.5308 10.2751 28.8473 9.52087 28.8473 8.2517V5.38154C28.8473 4.11237 28.5308 3.35818 28.0863 2.91368C27.6418 2.46918 26.8876 2.15262 25.6184 2.15262H22.7482C21.4791 2.15262 20.7249 2.46918 20.2804 2.91368Z" fill="#fff"/>
<path fill-rule="evenodd" clip-rule="evenodd" d="M1.5373 18.6123C2.52788 17.6217 3.92631 17.2207 5.52729 17.2207H8.39745C9.99844 17.2207 11.3969 17.6217 12.3874 18.6123C13.378 19.6028 13.779 21.0013 13.779 22.6022V25.4724C13.779 27.0734 13.378 28.4718 12.3874 29.4624C11.3969 30.453 9.99844 30.8539 8.39745 30.8539H5.52729C3.92631 30.8539 2.52788 30.453 1.5373 29.4624C0.546727 28.4718 0.145752 27.0734 0.145752 25.4724V22.6022C0.145752 21.0013 0.546727 19.6028 1.5373 18.6123ZM3.05943 20.1344C2.61493 20.5789 2.29837 21.3331 2.29837 22.6022V25.4724C2.29837 26.7416 2.61493 27.4958 3.05943 27.9403C3.50394 28.3848 4.25812 28.7013 5.52729 28.7013H8.39745C9.66662 28.7013 10.4208 28.3848 10.8653 27.9403C11.3098 27.4958 11.6264 26.7416 11.6264 25.4724V22.6022C11.6264 21.3331 11.3098 20.5789 10.8653 20.1344C10.4208 19.6899 9.66662 19.3733 8.39745 19.3733H5.52729C4.25812 19.3733 3.50394 19.6899 3.05943 20.1344Z" fill="#fff"/>
<path fill-rule="evenodd" clip-rule="evenodd" d="M6.96237 2.15262C4.38651 2.15262 2.29837 4.24076 2.29837 6.81662C2.29837 9.39248 4.38651 11.4806 6.96237 11.4806C9.53823 11.4806 11.6264 9.39248 11.6264 6.81662C11.6264 4.24076 9.53823 2.15262 6.96237 2.15262ZM0.145752 6.81662C0.145752 3.05191 3.19766 0 6.96237 0C10.7271 0 13.779 3.05191 13.779 6.81662C13.779 10.5813 10.7271 13.6332 6.96237 13.6332C3.19766 13.6332 0.145752 10.5813 0.145752 6.81662Z" fill="#fff"/>
<path fill-rule="evenodd" clip-rule="evenodd" d="M24.1833 19.3733C21.6075 19.3733 19.5193 21.4615 19.5193 24.0373C19.5193 26.6132 21.6075 28.7013 24.1833 28.7013C26.7592 28.7013 28.8473 26.6132 28.8473 24.0373C28.8473 21.4615 26.7592 19.3733 24.1833 19.3733ZM17.3667 24.0373C17.3667 20.2726 20.4186 17.2207 24.1833 17.2207C27.948 17.2207 30.9999 20.2726 30.9999 24.0373C30.9999 27.802 27.948 30.8539 24.1833 30.8539C20.4186 30.8539 17.3667 27.802 17.3667 24.0373Z" fill="#fff"/>
</svg>
