<svg width="31" height="31" viewBox="0 0 31 31" fill="none" xmlns="http://www.w3.org/2000/svg">
<path d="M8.49603 19.9977C6.66862 21.0858 1.87726 23.3076 4.79552 26.0879C6.22107 27.446 7.80876 28.4173 9.80487 28.4173H21.1951C23.1912 28.4173 24.7789 27.446 26.2045 26.0879C29.1227 23.3076 24.3314 21.0858 22.504 19.9977C18.2187 17.4461 12.7813 17.4461 8.49603 19.9977Z" stroke="white" stroke-width="2.14145" stroke-linecap="round" stroke-linejoin="round"/>
<path d="M21.3125 8.39648C21.3125 11.6066 18.7102 14.209 15.5 14.209C12.2898 14.209 9.6875 11.6066 9.6875 8.39648C9.6875 5.18633 12.2898 2.58398 15.5 2.58398C18.7102 2.58398 21.3125 5.18633 21.3125 8.39648Z" stroke="white" stroke-width="2.14145"/>
</svg>
