<svg width="25" height="25" viewBox="0 0 25 25" fill="none" xmlns="http://www.w3.org/2000/svg">
<path d="M17.0999 10.2L19.5717 10.9415C21.1508 11.4152 21.9404 11.6521 22.3951 12.2633C22.8499 12.8744 22.8499 13.6988 22.8499 15.3475V24" stroke="white" stroke-width="1.725" stroke-linejoin="round"/>
<path d="M7.90015 9.05005L11.3501 9.05005M7.90015 13.65L11.3501 13.65" stroke="white" stroke-width="1.725" stroke-linecap="round" stroke-linejoin="round"/>
<path d="M12.5 24V20.55C12.5 19.4658 12.5 18.9237 12.1632 18.5868C11.8263 18.25 11.2842 18.25 10.2 18.25H9.05C7.96577 18.25 7.42365 18.25 7.08683 18.5868C6.75 18.9237 6.75 19.4658 6.75 20.55V24" stroke="white" stroke-width="1.725" stroke-linejoin="round"/>
<path d="M1 24L24 24" stroke="white" stroke-width="1.725" stroke-linecap="round"/>
<path d="M2.15015 24V6.42483C2.15015 3.53746 2.15015 2.09378 3.06001 1.37748C3.96987 0.661181 5.30968 1.05008 7.98929 1.82788L13.7393 3.4969C15.3563 3.96627 16.1648 4.20095 16.6325 4.8406C17.1001 5.48025 17.1001 6.35145 17.1001 8.09385V24" stroke="white" stroke-width="1.725" stroke-linecap="round" stroke-linejoin="round"/>
</svg>
