<svg width="23" height="24" viewBox="0 0 23 24" fill="none" xmlns="http://www.w3.org/2000/svg">
<path fill-rule="evenodd" clip-rule="evenodd" d="M0.9575 6.09722C1.92717 4.9444 3.58963 4.38086 6.02421 4.38086H16.9758C19.4104 4.38086 21.0728 4.9444 22.0425 6.09722C23.0028 7.23885 23.0941 8.73867 22.9402 10.1371L22.1184 18.9026C21.9978 20.0285 21.7151 21.2628 20.7099 22.1813C19.712 23.0929 18.1661 23.5461 15.8806 23.5461H7.11937C4.83393 23.5461 3.28799 23.0929 2.29014 22.1813C1.28486 21.2628 1.00227 20.0285 0.881638 18.9025L0.880478 18.8917L0.0598107 10.1372C-0.094091 8.73869 -0.00275637 7.23886 0.9575 6.09722ZM2.21466 7.15465C1.69804 7.76885 1.55263 8.69172 1.69335 9.96344L1.69486 9.9771L2.5156 18.7329C2.62516 19.7506 2.85199 20.4695 3.39814 20.9684C3.95268 21.4751 5.00226 21.9034 7.11937 21.9034H15.8806C17.9977 21.9034 19.0473 21.4751 19.6019 20.9684C20.148 20.4695 20.3748 19.7506 20.4844 18.7329L21.3065 9.96343C21.4473 8.6917 21.302 7.76884 20.7853 7.15465C20.2765 6.54974 19.2175 6.0236 16.9758 6.0236H6.02421C3.78246 6.0236 2.72346 6.54974 2.21466 7.15465Z" fill="#000"/>
<path fill-rule="evenodd" clip-rule="evenodd" d="M7.98844 3.06686C7.94191 3.42321 7.94059 3.82818 7.94059 4.32588V5.202C7.94059 5.65563 7.57285 6.02337 7.11922 6.02337C6.66559 6.02337 6.29785 5.65563 6.29785 5.202L6.29785 4.29741C6.29783 3.83358 6.2978 3.32697 6.35952 2.85419C6.42348 2.36432 6.56053 1.84425 6.8816 1.37971C7.55702 0.402461 8.79428 0 10.6237 0H12.376C14.2054 0 15.4427 0.402461 16.1181 1.37971C16.4392 1.84425 16.5762 2.36432 16.6402 2.85419C16.7019 3.32697 16.7019 3.83359 16.7019 4.29742L16.7019 5.202C16.7019 5.65563 16.3341 6.02337 15.8805 6.02337C15.4269 6.02337 15.0591 5.65563 15.0591 5.202V4.32588C15.0591 3.82818 15.0578 3.42321 15.0113 3.06686C14.9657 2.7179 14.8837 2.48299 14.7667 2.31371C14.566 2.02331 14.051 1.64274 12.376 1.64274H10.6237C8.94867 1.64274 8.43368 2.02331 8.23298 2.31371C8.11598 2.48299 8.034 2.7179 7.98844 3.06686Z" fill="#000"/>
<path fill-rule="evenodd" clip-rule="evenodd" d="M10.1319 12.5953C10.1311 12.6735 10.131 12.7626 10.131 12.8682V13.9962C10.131 14.3045 10.1337 14.5313 10.1605 14.7237C10.1862 14.9087 10.2271 14.9987 10.2618 15.0476C10.3004 15.1022 10.4931 15.3323 11.5 15.3323C12.5115 15.3323 12.7018 15.0999 12.7396 15.0459C12.7745 14.9962 12.8153 14.9047 12.8406 14.7175C12.8669 14.5229 12.8689 14.2951 12.8689 13.9853V12.8682C12.8689 12.7626 12.8689 12.6735 12.8681 12.5953C12.7899 12.5944 12.7008 12.5944 12.5951 12.5944H10.4048C10.2992 12.5944 10.2101 12.5944 10.1319 12.5953ZM10.3688 10.9517C10.3808 10.9517 10.3928 10.9517 10.4048 10.9517H12.5951C12.6071 10.9517 12.6191 10.9517 12.6311 10.9517C12.8733 10.9516 13.1187 10.9516 13.319 10.9738C13.5231 10.9965 13.8622 11.0571 14.1342 11.3291C14.4062 11.6011 14.4668 11.9402 14.4895 12.1444C14.5118 12.3446 14.5117 12.59 14.5117 12.8322C14.5117 12.8442 14.5117 12.8562 14.5117 12.8682V13.9976C14.5117 14.282 14.5117 14.6185 14.4685 14.9378C14.4237 15.2691 14.3255 15.6452 14.0852 15.9883C13.5727 16.7201 12.6679 16.975 11.5 16.975C10.3385 16.975 9.43595 16.7233 8.92155 15.9975C8.67967 15.6563 8.57956 15.2816 8.53344 14.9501C8.48834 14.6261 8.48829 14.2848 8.48829 13.9962V12.8682C8.48829 12.8562 8.48829 12.8442 8.48829 12.8322C8.48823 12.59 8.48818 12.3446 8.51043 12.1444C8.53311 11.9402 8.59376 11.6011 8.86576 11.3291C9.13776 11.0571 9.47684 10.9965 9.68098 10.9738C9.88124 10.9516 10.1267 10.9516 10.3688 10.9517Z" fill="#000"/>
<path fill-rule="evenodd" clip-rule="evenodd" d="M22.7323 10.1948C22.9992 10.5616 22.918 11.0753 22.5512 11.3421C19.9051 13.2666 16.882 14.4112 13.7927 14.8002C13.3427 14.8569 12.9319 14.5379 12.8752 14.0879C12.8185 13.6378 13.1374 13.227 13.5875 13.1703C16.4121 12.8146 19.1714 11.7689 21.585 10.0136C21.9518 9.74679 22.4655 9.8279 22.7323 10.1948Z" fill="#000"/>
<path fill-rule="evenodd" clip-rule="evenodd" d="M0.549645 10.5094C0.805862 10.135 1.31703 10.0393 1.69137 10.2955C4.04475 11.9063 6.69859 12.8771 9.40112 13.1797C9.85193 13.2301 10.1765 13.6365 10.126 14.0873C10.0755 14.5381 9.66914 14.8627 9.21833 14.8122C6.24794 14.4796 3.33836 13.4134 0.763531 11.6511C0.389188 11.3949 0.293428 10.8837 0.549645 10.5094Z" fill="#000"/>
</svg>
