<svg width="24" height="23" viewBox="0 0 24 23" fill="none" xmlns="http://www.w3.org/2000/svg">
<path d="M8.15002 14.2H15.85M8.15002 8.70001H12" stroke="black" stroke-width="1.65" stroke-linecap="round" stroke-linejoin="round"/>
<path d="M14.3877 21.2296C18.989 20.9237 22.6542 17.2065 22.9557 12.54C23.0148 11.6267 23.0148 10.681 22.9557 9.7678C22.6542 5.10121 18.989 1.38405 14.3877 1.07818C12.8179 0.973833 11.1789 0.974046 9.61234 1.07818C5.01103 1.38405 1.34585 5.10121 1.04426 9.7678C0.985245 10.681 0.985245 11.6267 1.04426 12.54C1.1541 14.2396 1.90578 15.8133 2.7907 17.1421C3.30451 18.0723 2.96542 19.2334 2.43023 20.2476C2.04435 20.9789 1.85141 21.3445 2.00633 21.6086C2.16124 21.8727 2.50728 21.8812 3.19937 21.898C4.56803 21.9313 5.49095 21.5433 6.22355 21.0031C6.63904 20.6967 6.84679 20.5435 6.98998 20.5259C7.13316 20.5083 7.41494 20.6243 7.97841 20.8564C8.48484 21.065 9.07286 21.1937 9.61234 21.2296C11.1789 21.3337 12.8179 21.3339 14.3877 21.2296Z" stroke="black" stroke-width="1.65" stroke-linejoin="round"/>
</svg>
