<svg width="274" height="223" viewBox="0 0 274 223" fill="none" xmlns="http://www.w3.org/2000/svg">
<path d="M207.762 60.237C193.753 69.1839 196.287 85.2133 183.247 95.9319C167.622 108.775 157.418 107.83 134.653 113.559C119.653 117.334 107.511 127.661 102.258 136.474C92.5405 152.777 88.4754 166.448 94.378 184.508C101.838 207.332 120.465 215.811 143.847 220.644C164.22 224.855 177.177 219.873 196.38 211.83C223.777 200.357 237.664 186.544 253.291 161.152C269.124 135.425 276.931 102.983 272.991 86.237C269.12 69.7864 262.217 57.6553 246.286 52.3048C231.72 47.4124 220.729 51.9557 207.762 60.237Z" fill="#231E54"/>
<path d="M0.255511 57.152C-2.74494 31.9248 21.4461 11.0606 32.6504 5.59257C47.0979 -1.45826 66.4069 -3.68099 79.9312 9.99942C92.6805 22.896 91.4616 36.0121 86.9356 53.6266C81.2741 75.6605 59.7935 93.7283 34.8402 91.525C13.1421 89.609 2.84482 78.9223 0.255511 57.152Z" fill="#231E54"/>
</svg>
