<svg width="137" height="213" viewBox="0 0 137 213" fill="none" xmlns="http://www.w3.org/2000/svg">
<path d="M-118.977 68.2814C-120.286 27.2154 -64.9766 2.28137 -38.4774 0.281209C-18.9473 -1.19293 -4.22366 2.91069 8.52258 17.7812C17.9512 28.7813 12.5373 37.301 20.0227 47.2812C23.0228 51.2813 45.8143 33.7812 65.0226 33.7812C87.5227 33.7812 102.346 42.9277 109.023 62.2812C121.442 98.2812 87.0227 105.281 93.5226 110.781C104.325 119.922 132.023 120.281 136.523 145.781C141.023 171.281 111.523 230.781 58.5227 259.281C49.8373 263.952 15.5227 277.281 -11.4774 259.281C-38.4775 241.281 -35.9126 204.479 -16.9774 179.781C-5.47729 164.781 4.52271 153.281 4.52271 140.281C4.52271 122.572 -8.47729 110.781 -26.9773 110.781C-42.7162 110.781 -55.9773 123.281 -77.9775 121.281C-106.955 118.647 -118.05 97.3633 -118.977 68.2814Z" fill="#231E54"/>
</svg>
