<svg width="20" height="22" viewBox="0 0 20 22" fill="none" xmlns="http://www.w3.org/2000/svg">
<g id="share-06">
<path id="Vector 6781" d="M4.53722 15.4856C3.80962 15.3305 3.26068 15.0717 2.81951 14.6397C1.71888 13.5621 1.71888 11.8276 1.71888 8.35865C1.71888 4.8897 1.71888 3.15523 2.81951 2.07757C3.92014 0.999901 5.69158 0.999901 9.23445 0.999901H11.1133C14.6562 0.999901 16.4276 0.999901 17.5283 2.07757C18.6289 3.15523 18.6289 4.8897 18.6289 8.35865C18.6289 11.8276 18.6289 13.5621 17.5283 14.6397C17.0871 15.0717 16.5382 15.3305 15.8106 15.4856" stroke="#ADADAD" stroke-width="1.61741" stroke-linecap="round"/>
<path id="Vector" d="M10.1501 20.3138L10.1739 8.72571M10.1501 20.3138C10.3029 20.3203 10.4566 20.2641 10.5935 20.1453C11.445 19.4064 12.9922 17.4858 12.9922 17.4858M10.1501 20.3138C10.0131 20.3079 9.87684 20.2517 9.75409 20.1452C8.90268 19.4061 7.35551 17.4858 7.35551 17.4858" stroke="#ADADAD" stroke-width="1.61741" stroke-linecap="round" stroke-linejoin="round"/>
</g>
</svg>
