<svg width="167" height="167" viewBox="0 0 167 167" fill="none" xmlns="http://www.w3.org/2000/svg">
<path fill-rule="evenodd" clip-rule="evenodd" d="M58.5966 14.1924C44.8611 15.2274 16.1923 28.1298 16.8707 49.3799C17.3511 64.4286 23.1024 75.442 38.1223 76.8052C43.0431 77.2519 47.1205 76.3013 50.8215 75.0762V58.4353H24.6456C24.3593 58.4353 24.1273 58.2033 24.1273 57.9171V51.4496L47.6293 42.9412C47.6837 42.9215 47.7411 42.9111 47.7989 42.9103L133.018 41.788C128.974 34.8404 122.002 31.5273 112.244 31.5273C106.644 31.5273 100.457 34.392 95.8377 36.5307C92.2441 38.1944 89.5996 39.4188 88.9192 38.5131C87.1068 36.1007 86.7533 33.8532 86.3931 31.5627C85.9822 28.9499 85.5626 26.2811 82.9583 23.248C76.3515 15.553 68.7197 13.4296 58.5966 14.1924ZM136.45 54.6045L130.645 58.4353H119.501H105.506V107.782L134.792 108.37V115.666C134.792 115.799 134.74 115.927 134.648 116.024L118.205 133.209L62.4119 131.431C63.1775 138.012 66.3705 144.074 72.5916 148.215C86.5867 157.529 104.373 150.632 108.875 148.215C136.347 133.467 151.638 102.678 149.305 89.4831C147.698 80.3912 140.382 77.4756 134.156 74.9942C131.346 73.8743 128.758 72.8428 127.017 71.3719C125.912 70.4387 127.088 69.422 128.94 67.8201C131.769 65.3743 136.175 61.5644 136.45 54.6045ZM126.239 87.4132C126.382 83.5551 123.366 80.3116 119.501 80.1687C115.794 80.6028 113.144 83.6895 113.281 87.4132C113.413 90.9859 115.923 93.9973 119.501 94.1402C123.219 94.2887 126.102 91.1259 126.239 87.4132Z" fill="#E95B47"/>
<path d="M24.1275 51.4494L47.6295 42.9411C47.6839 42.9214 47.7413 42.9109 47.7991 42.9102L145.936 41.6177M24.1275 51.4494V57.9169C24.1275 58.2031 24.3595 58.4352 24.6458 58.4352H50.8217M24.1275 51.4494H91.7702M130.127 51.4494L145.936 41.6177M130.127 51.4494L130.645 58.4352M130.127 51.4494H117.687M145.936 41.6177V48.0657C145.936 48.2399 145.849 48.4024 145.703 48.4983L130.645 58.4352M130.645 58.4352H119.501M50.8217 58.4352H105.506M50.8217 58.4352V106.684M105.506 58.4352H119.501M105.506 58.4352V107.782M134.792 108.37V115.665C134.792 115.799 134.74 115.927 134.648 116.024L118.205 133.208M134.792 108.37L118.205 126.74M134.792 108.37L105.506 107.782M118.205 133.208L21.2601 130.12C20.9804 130.111 20.7583 129.881 20.7583 129.602V123.635M118.205 133.208V126.74M20.7583 123.635L44.4617 106.659C44.5526 106.594 44.6621 106.56 44.7739 106.563L50.8217 106.684M20.7583 123.635L118.205 126.74M119.501 58.4352C119.501 58.4352 119.501 71.6811 119.501 80.1686M119.501 80.1686C115.794 80.6026 113.144 83.6894 113.281 87.413C113.413 90.9858 115.923 93.9971 119.501 94.14C123.22 94.2885 126.102 91.1257 126.239 87.413C126.383 83.5549 123.366 80.3115 119.501 80.1686ZM50.8217 106.684V114.616C50.8217 114.758 50.8756 114.89 50.9808 114.986C61.2855 124.368 99.4997 124.107 105.43 114.959C105.482 114.879 105.506 114.788 105.506 114.692V107.782M89.4377 63.3511C90.3226 63.1539 91.0856 63.1066 93.8435 63.3511M98.5086 64.6447C99.0778 66.4934 99.0661 67.4553 98.5086 69.0431M62.4843 99.3146C62.708 101.231 62.6825 102.316 62.4843 104.231M57.0418 101.643C56.9354 102.532 56.9157 103.076 57.0418 104.231M61.9659 110.958C62.072 112.286 62.1098 113.007 61.9659 114.062M118.724 112.251C120.607 111.678 121.489 111.496 122.352 111.734M116.391 119.754C116.408 118.856 116.805 118.303 118.724 117.167M132.719 71.113C136.058 70.7799 137.616 71.1453 139.457 73.4416M129.349 75.7701C132.023 76.155 133.177 76.9117 134.015 80.1686" stroke="black" stroke-width="2.5914" stroke-linecap="round"/>
</svg>
