<svg width="237" height="98" viewBox="0 0 237 98" fill="none" xmlns="http://www.w3.org/2000/svg">
<path d="M235.646 1.78714C235.839 1.5884 235.836 1.27094 235.64 1.07807C235.444 0.885201 235.128 0.889955 234.935 1.08869L235.646 1.78714ZM0.737615 91.0262L5.49529 94.2547L5.92342 88.4779L0.737615 91.0262ZM234.935 1.08869C234.25 1.79366 233.561 2.49549 232.869 3.19417L233.573 3.89977C234.268 3.19872 234.959 2.4945 235.646 1.78714L234.935 1.08869ZM228.675 7.34328C227.265 8.71104 225.84 10.0659 224.4 11.4077L225.076 12.1413C226.52 10.7949 227.95 9.4354 229.365 8.06299L228.675 7.34328ZM220.046 15.386C218.583 16.6961 217.106 17.9929 215.614 19.2762L216.259 20.0365C217.756 18.7489 219.238 17.4476 220.706 16.133L220.046 15.386ZM211.106 23.0772C209.593 24.3276 208.065 25.5643 206.524 26.787L207.139 27.5729C208.685 26.346 210.218 25.1051 211.736 23.8504L211.106 23.0772ZM201.87 30.4048C200.309 31.5935 198.734 32.768 197.145 33.9282L197.728 34.7384C199.322 33.5742 200.902 32.3957 202.468 31.2029L201.87 30.4048ZM192.352 37.3572C190.746 38.4823 189.126 39.5929 187.493 40.6889L188.043 41.5219C189.681 40.4223 191.306 39.3079 192.918 38.1789L192.352 37.3572ZM182.568 43.9238C180.919 44.9837 179.257 46.0288 177.583 47.0588L178.099 47.9134C179.779 46.8799 181.447 45.8313 183.101 44.7678L182.568 43.9238ZM172.535 50.0947C170.846 51.088 169.145 52.0661 167.431 53.0289L167.913 53.9037C169.632 52.9377 171.34 51.9562 173.034 50.9596L172.535 50.0947ZM162.269 55.8616C160.543 56.787 158.804 57.697 157.054 58.5913L157.501 59.4848C159.257 58.5875 161.001 57.6744 162.734 56.7459L162.269 55.8616ZM151.787 61.2171C150.026 62.0736 148.253 62.9143 146.469 63.7392L146.881 64.6499C148.671 63.8223 150.449 62.9788 152.216 62.1195L151.787 61.2171ZM141.106 66.1553C139.313 66.9417 137.51 67.7122 135.695 68.4666L136.071 69.3931C137.891 68.6362 139.701 67.8631 141.499 67.0741L141.106 66.1553ZM130.243 70.6712C129.331 71.0296 128.417 71.3839 127.5 71.7342L127.848 72.6715C128.769 72.32 129.686 71.9645 130.601 71.605L130.243 70.6712ZM127.5 71.7342C126.583 72.0845 125.665 72.4299 124.747 72.7705L125.086 73.7112C126.008 73.3695 126.928 73.0229 127.848 72.6715L127.5 71.7342ZM119.215 74.7612C117.36 75.4084 115.504 76.0359 113.645 76.644L113.948 77.5975C115.813 76.9874 117.676 76.3578 119.536 75.7085L119.215 74.7612ZM108.042 78.4165C106.165 78.9903 104.285 79.5444 102.405 80.0789L102.67 81.0438C104.557 80.5075 106.442 79.9516 108.326 79.3759L108.042 78.4165ZM96.7377 81.6292C94.8402 82.1283 92.9415 82.6075 91.0418 83.0671L91.269 84.0421C93.175 83.581 95.0801 83.1001 96.984 82.5994L96.7377 81.6292ZM85.3193 84.3916C83.4047 84.8148 81.4893 85.2182 79.5734 85.6018L79.7619 86.5853C81.6843 86.2004 83.6061 85.7957 85.5272 85.3711L85.3193 84.3916ZM73.8043 86.6973C71.8754 87.0437 69.9462 87.3702 68.017 87.6771L68.1665 88.6676C70.1021 88.3598 72.0378 88.0321 73.9733 87.6846L73.8043 86.6973ZM62.2104 88.5411C60.2699 88.81 58.3298 89.059 56.3901 89.2883L56.5001 90.2843C58.4463 90.0542 60.3931 89.8044 62.3401 89.5345L62.2104 88.5411ZM50.5557 89.9188C48.6068 90.1096 46.6587 90.2806 44.7117 90.4319L44.782 91.4318C46.7356 91.28 48.6903 91.1084 50.6458 90.9169L50.5557 89.9188ZM38.8587 90.8275C36.9045 90.9399 34.9516 91.0325 33.0003 91.1054L33.0308 92.1076C34.9887 92.0344 36.9482 91.9415 38.9091 91.8288L38.8587 90.8275ZM27.138 91.2654C25.1816 91.2991 23.227 91.3131 21.2746 91.3074L21.2652 92.3103C23.2242 92.316 25.1854 92.302 27.1485 92.2681L27.138 91.2654ZM15.4123 91.2315C13.4568 91.1865 11.5038 91.1219 9.55346 91.0377L9.50417 92.0397C11.4611 92.1241 13.4208 92.189 15.3829 92.2342L15.4123 91.2315ZM236.001 2.13636C236.387 1.73889 236.382 1.10397 235.989 0.71823C235.597 0.332487 234.965 0.341996 234.579 0.739468L236.001 2.13636ZM0.737615 91.0262L10.253 97.4831L11.1092 85.9295L0.737615 91.0262ZM234.579 0.739468C233.896 1.44324 233.208 2.14388 232.517 2.84137L233.925 4.25257C234.621 3.55034 235.313 2.84492 236.001 2.13636L234.579 0.739468ZM228.33 6.98342C226.923 8.34886 225.5 9.70146 224.063 11.041L225.413 12.508C226.86 11.1594 228.292 9.79758 229.71 8.42285L228.33 6.98342ZM219.716 15.0124C218.255 16.3203 216.781 17.615 215.291 18.8961L216.582 20.4167C218.081 19.1268 219.566 17.8234 221.036 16.5066L219.716 15.0124ZM210.791 22.6906C209.28 23.9389 207.756 25.1735 206.217 26.3941L207.446 27.9658C208.995 26.7368 210.53 25.4938 212.051 24.2371L210.791 22.6906ZM201.57 30.0057C200.012 31.1924 198.44 32.365 196.854 33.5232L198.019 35.1434C199.616 33.9773 201.198 32.7967 202.767 31.602L201.57 30.0057ZM192.069 36.9463C190.465 38.0695 188.848 39.1783 187.218 40.2723L188.318 41.9385C189.959 40.837 191.587 39.7207 193.201 38.5898L192.069 36.9463ZM182.302 43.5018C180.656 44.5599 178.996 45.6032 177.325 46.6314L178.357 48.3407C180.04 47.3055 181.71 46.2551 183.368 45.1898L182.302 43.5018ZM172.286 49.6622C170.599 50.6538 168.901 51.6303 167.19 52.5915L168.153 54.3411C169.876 53.3735 171.586 52.3904 173.284 51.392L172.286 49.6622ZM162.037 55.4194C160.313 56.3432 158.578 57.2517 156.83 58.1445L157.724 59.9316C159.483 59.0327 161.231 58.1182 162.966 57.1881L162.037 55.4194ZM151.572 60.766C149.814 61.621 148.045 62.4603 146.263 63.2838L147.086 65.1053C148.879 64.2763 150.661 63.4314 152.431 62.5706L151.572 60.766ZM140.909 65.6959C139.12 66.481 137.319 67.2502 135.507 68.0034L136.259 69.8563C138.082 69.0982 139.895 68.3238 141.696 67.5335L140.909 65.6959ZM130.064 70.2043C129.154 70.5621 128.241 70.9159 127.325 71.2656L128.023 73.1401C128.944 72.7881 129.863 72.432 130.779 72.0718L130.064 70.2043ZM127.325 71.2656C126.41 71.6153 125.494 71.9602 124.577 72.3002L125.256 74.1815C126.179 73.8393 127.101 73.4921 128.023 73.1401L127.325 71.2656ZM119.054 74.2876C117.203 74.9337 115.349 75.5602 113.494 76.1672L114.099 78.0742C115.967 77.4631 117.833 76.8325 119.697 76.1821L119.054 74.2876ZM107.9 77.9368C106.026 78.5096 104.15 79.0628 102.272 79.5964L102.803 81.5263C104.693 80.9891 106.581 80.4322 108.468 79.8556L107.9 77.9368ZM96.6145 81.1442C94.7202 81.6424 92.8247 82.1208 90.9282 82.5796L91.3825 84.5296C93.2918 84.0677 95.2001 83.586 97.1071 83.0845L96.6145 81.1442ZM85.2154 83.9019C83.3039 84.3244 81.3918 84.727 79.4792 85.11L79.8562 87.0771C81.7817 86.6915 83.7068 86.2861 85.6311 85.8608L85.2154 83.9019ZM73.7198 86.2037C71.7941 86.5495 69.8682 86.8755 67.9423 87.1818L68.2412 89.1629C70.1801 88.8545 72.1191 88.5263 74.0578 88.1782L73.7198 86.2037ZM62.1455 88.0443C60.2084 88.3128 58.2715 88.5614 56.3351 88.7903L56.5551 90.7823C58.5046 90.5519 60.4546 90.3015 62.4049 90.0313L62.1455 88.0443ZM50.5106 89.4197C48.565 89.6102 46.6203 89.7809 44.6765 89.9319L44.8171 91.9317C46.7741 91.7797 48.7321 91.6078 50.6909 91.416L50.5106 89.4197ZM38.8335 90.3269C36.8826 90.4391 34.933 90.5315 32.9851 90.6043L33.046 92.6087C35.0072 92.5354 36.9701 92.4424 38.9343 92.3294L38.8335 90.3269ZM27.1327 90.764C25.1796 90.7977 23.2284 90.8116 21.2794 90.806L21.2605 92.8118C23.2229 92.8174 25.1874 92.8034 27.1538 92.7695L27.1327 90.764ZM15.427 90.7302C13.4748 90.6853 11.5251 90.6208 9.57809 90.5367L9.47953 92.5406C11.4398 92.6252 13.4028 92.6902 15.3682 92.7355L15.427 90.7302Z" fill="#494949"/>
</svg>
