<svg width="229" height="117" viewBox="0 0 229 117" fill="none" xmlns="http://www.w3.org/2000/svg">
<path d="M1.39437 2.31848C1.21844 2.10444 1.24737 1.78829 1.45899 1.61234C1.67062 1.43639 1.9848 1.46726 2.16073 1.68131L1.39437 2.31848ZM228.106 110.703L223.097 113.527L223.149 107.734L228.106 110.703ZM2.16073 1.68131C2.78482 2.44056 3.4129 3.197 4.04499 3.9506L3.28504 4.59549C2.6508 3.83933 2.02058 3.08031 1.39437 2.31848L2.16073 1.68131ZM7.88084 8.43275C9.17299 9.91259 10.4809 11.3808 11.8045 12.8372L11.0709 13.5123C9.74284 12.051 8.43047 10.5778 7.13393 9.09288L7.88084 8.43275ZM15.8145 17.1624C17.1639 18.5892 18.5288 20.0039 19.909 21.4063L19.203 22.1105C17.8181 20.7034 16.4486 19.2838 15.0946 17.8522L15.8145 17.1624ZM24.0868 25.5675C25.4914 26.9389 26.9111 28.2978 28.3457 29.644L27.6684 30.3763C26.2289 29.0255 24.8044 27.662 23.3951 26.2859L24.0868 25.5675ZM32.6847 33.6347C34.142 34.9486 35.6141 36.2496 37.1009 37.5373L36.4534 38.2964C34.9616 37.0043 33.4844 35.6989 32.0221 34.3806L32.6847 33.6347ZM41.5941 41.3514C43.1018 42.6057 44.6239 43.8466 46.1604 45.074L45.5436 45.8587C44.0019 44.6272 42.4746 43.382 40.9618 42.1235L41.5941 41.3514ZM50.8004 48.7056C52.356 49.8984 53.9256 51.0775 55.5092 52.2427L54.9241 53.0516C53.3352 51.8826 51.7602 50.6995 50.1993 49.5026L50.8004 48.7056ZM60.2879 55.6861C61.889 56.8158 63.5037 57.9315 65.132 59.0329L64.5794 59.8648C62.9456 58.7597 61.3254 57.6403 59.719 56.5067L60.2879 55.6861ZM70.0412 62.2833C71.6851 63.3485 73.3422 64.3993 75.0126 65.4355L74.4933 66.2889C72.8173 65.2493 71.1545 64.1949 69.5051 63.1262L70.0412 62.2833ZM80.044 68.4885C81.728 69.4878 83.4249 70.4725 85.1347 71.4422L84.6492 72.3158C82.9337 71.3428 81.2311 70.3548 79.5415 69.3522L80.044 68.4885ZM90.2796 74.2942C92.0007 75.2263 93.7342 76.1435 95.4803 77.0456L95.0292 77.9378C93.2773 77.0327 91.538 76.1124 89.8113 75.1772L90.2796 74.2942ZM100.731 79.6941C101.61 80.1267 102.492 80.5556 103.377 80.9806L102.952 81.8858C102.064 81.4593 101.179 81.0291 100.297 80.595L100.731 79.6941ZM103.377 80.9806C104.262 81.4056 105.148 81.8259 106.035 82.2413L105.618 83.1506C104.729 82.7338 103.84 82.3122 102.952 81.8858L103.377 80.9806ZM111.382 84.6832C113.177 85.4817 114.976 86.2609 116.777 87.0208L116.397 87.9459C114.589 87.1835 112.784 86.4018 110.984 85.6006L111.382 84.6832ZM122.214 89.2511C124.038 89.9784 125.865 90.6862 127.695 91.3747L127.35 92.3143C125.514 91.6236 123.681 90.9134 121.852 90.1837L122.214 89.2511ZM133.214 93.389C135.064 94.0434 136.916 94.6782 138.771 95.2936L138.464 96.2464C136.603 95.629 134.744 94.992 132.888 94.3354L133.214 93.389ZM144.364 97.0874C146.237 97.6677 148.113 98.2282 149.99 98.7692L149.721 99.7337C147.837 99.1909 145.955 98.6285 144.076 98.0463L144.364 97.0874ZM155.649 100.339C157.542 100.844 159.438 101.329 161.335 101.794L161.104 102.769C159.201 102.302 157.299 101.815 155.399 101.309L155.649 100.339ZM167.05 103.136C168.962 103.565 170.875 103.974 172.789 104.363L172.597 105.346C170.676 104.956 168.757 104.546 166.839 104.115L167.05 103.136ZM178.551 105.474C180.477 105.826 182.404 106.158 184.332 106.47L184.179 107.46C182.245 107.147 180.311 106.814 178.378 106.461L178.551 105.474ZM190.132 107.348C192.071 107.622 194.009 107.876 195.948 108.11L195.834 109.107C193.889 108.872 191.944 108.617 189.999 108.342L190.132 107.348ZM201.777 108.755C203.724 108.951 205.67 109.127 207.616 109.283L207.543 110.283C205.59 110.126 203.637 109.95 201.683 109.754L201.777 108.755ZM213.465 109.693C215.417 109.81 217.369 109.907 219.32 109.985L219.286 110.987C217.329 110.909 215.37 110.812 213.411 110.694L213.465 109.693ZM1.01119 2.63707C0.659325 2.20899 0.717188 1.57669 1.14044 1.22479C1.56368 0.872884 2.19204 0.934637 2.54391 1.36272L1.01119 2.63707ZM228.106 110.703L218.089 116.35L218.192 104.765L228.106 110.703ZM2.54391 1.36272C3.16693 2.12068 3.79395 2.87584 4.42496 3.62816L2.90506 4.91794C2.26975 4.16049 1.63846 3.40019 1.01119 2.63707L2.54391 1.36272ZM8.25429 8.10268C9.54424 9.58001 10.8499 11.0458 12.1713 12.4997L10.7041 13.8499C9.37381 12.3861 8.05921 10.9103 6.76048 9.42294L8.25429 8.10268ZM16.1745 16.8175C17.5216 18.2418 18.8842 19.6541 20.262 21.0541L18.8501 22.4627C17.4628 21.0531 16.0909 19.6312 14.7346 18.1971L16.1745 16.8175ZM24.4327 25.2083C25.8349 26.5774 27.2521 27.934 28.6844 29.2778L27.3298 30.7424C25.8878 29.3894 24.4609 28.0235 23.0492 26.6451L24.4327 25.2083ZM33.016 33.2618C34.4708 34.5735 35.9404 35.8722 37.4247 37.1577L36.1296 38.676C34.6353 37.3817 33.1556 36.0741 31.6909 34.7535L33.016 33.2618ZM41.9102 40.9654C43.4154 42.2175 44.9349 43.4564 46.4688 44.6816L45.2352 46.251C43.6909 45.0174 42.1611 43.7702 40.6456 42.5095L41.9102 40.9654ZM51.1009 48.3071C52.6539 49.4979 54.2209 50.675 55.8018 51.8382L54.6316 53.4561C53.0399 52.2851 51.4623 51.1 49.8988 49.9011L51.1009 48.3071ZM60.5724 55.2758C62.1707 56.4036 63.7827 57.5174 65.4083 58.617L64.3031 60.2808C62.6665 59.1738 61.0436 58.0525 59.4345 56.917L60.5724 55.2758ZM70.3093 61.8619C71.9503 62.9253 73.6047 63.9743 75.2723 65.0088L74.2336 66.7157C72.5548 65.6743 70.8893 64.6182 69.2371 63.5476L70.3093 61.8619ZM80.2953 68.0566C81.9765 69.0543 83.6706 70.0373 85.3775 71.0054L84.4065 72.7525C82.6881 71.7779 80.9827 70.7883 79.2902 69.784L80.2953 68.0566ZM90.5138 73.8526C92.232 74.7832 93.9627 75.6989 95.7058 76.5995L94.8036 78.3839C93.0489 77.4773 91.3067 76.5555 89.5771 75.6187L90.5138 73.8526ZM100.948 79.2436C101.825 79.6755 102.706 80.1037 103.589 80.528L102.739 82.3384C101.85 81.9112 100.964 81.4803 100.08 81.0455L100.948 79.2436ZM103.589 80.528C104.473 80.9523 105.357 81.3719 106.243 81.7867L105.41 83.6053C104.519 83.1878 103.629 82.7655 102.739 82.3384L103.589 80.528ZM111.582 84.2245C113.373 85.0217 115.169 85.7996 116.968 86.5582L116.206 88.4085C114.395 87.6448 112.588 86.8618 110.785 86.0593L111.582 84.2245ZM122.396 88.7848C124.216 89.5109 126.04 90.2175 127.867 90.9048L127.178 92.7842C125.339 92.0923 123.503 91.3809 121.67 90.65L122.396 88.7848ZM133.377 92.9157C135.223 93.5691 137.073 94.2029 138.925 94.8172L138.31 96.7228C136.446 96.1044 134.584 95.4663 132.725 94.8086L133.377 92.9157ZM144.508 96.608C146.378 97.1872 148.251 97.7469 150.125 98.2869L149.586 100.216C147.699 99.6723 145.814 99.1089 143.932 98.5257L144.508 96.608ZM155.774 99.8538C157.664 100.358 159.557 100.842 161.451 101.307L160.989 103.256C159.082 102.789 157.177 102.301 155.274 101.793L155.774 99.8538ZM167.156 102.646C169.064 103.074 170.974 103.483 172.885 103.871L172.501 105.838C170.577 105.447 168.654 105.036 166.733 104.605L167.156 102.646ZM178.637 104.981C180.56 105.332 182.484 105.663 184.409 105.974L184.103 107.955C182.165 107.642 180.228 107.308 178.292 106.955L178.637 104.981ZM190.199 106.852C192.134 107.125 194.069 107.379 196.004 107.612L195.778 109.605C193.829 109.369 191.881 109.114 189.933 108.839L190.199 106.852ZM201.823 108.256C203.767 108.451 205.71 108.627 207.653 108.783L207.506 110.783C205.55 110.626 203.593 110.45 201.636 110.253L201.823 108.256ZM213.492 109.192C215.441 109.309 217.389 109.406 219.337 109.483L219.269 111.488C217.308 111.41 215.347 111.313 213.384 111.195L213.492 109.192Z" fill="#494949"/>
</svg>
