<svg width="415" height="415" viewBox="0 0 415 415" fill="none" xmlns="http://www.w3.org/2000/svg">
<path fill-rule="evenodd" clip-rule="evenodd" d="M232.179 112.371C223.127 119.981 214.066 127.599 197.938 132.925C184.47 137.372 169.95 138.373 156.289 139.314C144.281 140.142 132.937 140.923 123.557 143.96C103.507 150.452 83.4218 164.407 78.9282 187.453C74.5502 209.907 82.5365 226.135 98.9788 241.982C100.805 243.743 102.724 245.333 104.723 246.765C103.343 241.427 102.52 235.853 102.321 230.112C100.926 189.886 132.027 155.096 171.528 152.963C173.025 152.882 174.535 152.849 176.055 152.863C197.003 153.063 215.623 162.075 228.74 176.361C229.726 160.686 239.442 147.041 253.67 141.375C258.215 139.566 263.219 138.57 268.547 138.582C275.06 138.596 281.459 140.338 287.304 143.216C301.677 150.292 312.699 164.234 313.822 176.233C314.133 179.555 314.171 182.823 313.935 185.996C315.668 185.143 317.324 184.126 318.889 182.909C334.07 171.107 339.586 155.645 339.586 142.662C339.586 129.679 335.705 114.669 318.889 102.414C302.072 90.1597 279.434 84.8874 256.15 95.923C246.048 100.711 239.116 106.538 232.179 112.371ZM250.652 216.888C261.61 223.785 275.11 226.444 287.304 222.322C293.036 220.385 297.842 217.435 301.727 213.716C304.239 215.085 306.933 216.889 309.833 219.262C323.416 230.376 331.178 245.877 323.416 266.001C316.009 285.205 300.944 294.539 291.713 300.258C291.272 300.532 290.843 300.797 290.43 301.055C289.39 301.703 288.239 302.434 286.991 303.226C277.372 309.332 261.98 319.104 247.094 323.126C230.278 327.67 209.58 327.021 201.172 307.547C199.751 304.254 199.152 301.14 199.196 298.146C228.282 287.953 248.78 259.592 248.496 226.866C248.471 223.993 248.289 221.157 247.956 218.367C248.826 217.849 249.727 217.356 250.652 216.888Z" fill="#E95B47"/>
<path d="M287.304 222.323C273.884 226.859 258.881 223.181 247.426 214.68M287.304 222.323C287.304 222.323 279.601 211.463 276.955 203.497C275.661 199.602 275.661 194.409 284.717 194.409C293.772 194.409 306.077 205.843 310.455 200.901M287.304 222.323C298.611 218.5 306.311 210.743 310.455 200.901M228.74 176.361C215.623 162.075 197.003 153.063 176.055 152.863C174.535 152.849 173.025 152.883 171.528 152.963M228.74 176.361C230.044 177.782 231.295 179.255 232.487 180.777M228.74 176.361C229.726 160.686 239.442 147.041 253.671 141.375M247.426 214.68C248.095 218.646 248.46 222.718 248.496 226.866C248.822 264.435 221.759 296.253 185.757 301.434M247.426 214.68C245.287 202.015 240.043 190.418 232.487 180.777M171.528 152.963C132.027 155.096 100.926 189.886 102.321 230.112C102.964 248.646 110.106 265.444 121.542 278.15M171.528 152.963C171.528 152.963 148.243 182.724 150.184 209.339C150.901 219.174 158.478 226.429 168.294 226.866C197.399 228.165 196.753 185.97 232.487 180.777M121.542 278.15C134.979 293.079 154.344 302.359 176.055 302.168C179.35 302.139 182.588 301.89 185.757 301.434M121.542 278.15C121.542 278.15 126.519 257.928 137.894 251.534C154.064 242.446 168.941 245.456 177.996 254.131C192.225 267.763 177.996 275.553 185.757 301.434M119.137 204.795L117.197 216.48M132.72 209.339L131.427 216.48M121.542 230.112L119.137 241.148M205.808 263.219V273.606M219.39 254.131V263.219M253.671 141.375C258.215 139.566 263.219 138.57 268.547 138.582C275.06 138.596 281.459 140.339 287.304 143.216M253.671 141.375C263.164 143.659 254.317 165.974 263.372 176.361C267.71 181.336 274.069 182.029 278.895 177.531C287.951 169.092 281.314 144.408 287.304 143.216M287.304 143.216C301.677 150.292 312.699 164.234 313.822 176.233C314.653 185.102 313.537 193.578 310.455 200.901M334.52 194.409C337.819 204.28 337.887 209.599 332.579 218.428M351.336 191.163C353.91 199.122 354.8 203.553 353.277 211.287M87.4446 158.706C82.2643 165.746 81.5649 169.91 82.2702 177.531M66.7472 169.741C61.6692 176.954 60.6034 181.612 62.2197 191.163" stroke="black" stroke-width="6.47125" stroke-linecap="round"/>
</svg>
