<svg xmlns="http://www.w3.org/2000/svg" width="20" height="19" viewBox="0 0 20 19" fill="none">
<path d="M18.1731 16.2394L2.55673 10.7931C2.30192 10.7042 2.07995 10.5403 1.91994 10.323C1.75994 10.1057 1.66938 9.84506 1.66016 9.57535V8.11675C1.66126 7.84013 1.74806 7.57065 1.90862 7.34539C2.06918 7.12013 2.2956 6.95016 2.55673 6.85888L18.1731 1.42594C18.2733 1.39207 18.3802 1.38247 18.4849 1.39792C18.5896 1.41337 18.6891 1.45343 18.7753 1.51482C18.8615 1.5762 18.9319 1.65716 18.9808 1.75104C19.0296 1.84492 19.0555 1.94905 19.0563 2.05487V15.6105C19.0555 15.7163 19.0296 15.8204 18.9808 15.9143C18.9319 16.0082 18.8615 16.0891 18.7753 16.1505C18.6891 16.2119 18.5896 16.252 18.4849 16.2674C18.3802 16.2829 18.2733 16.2733 18.1731 16.2394Z" stroke="#E95B47" stroke-width="1.33816" stroke-linecap="round" stroke-linejoin="round"/>
<path d="M12.3385 14.2322C12.2258 15.1617 11.7631 16.0133 11.0445 16.6136C10.3259 17.2139 9.40551 17.5177 8.47077 17.4631C7.53603 17.4085 6.65725 16.9997 6.0134 16.3198C5.36956 15.64 5.00908 14.7403 5.00537 13.8039V11.6763" stroke="#E95B47" stroke-width="1.33816" stroke-linecap="round" stroke-linejoin="round"/>
</svg>