<svg width="34" height="34" viewBox="0 0 34 34" fill="none" xmlns="http://www.w3.org/2000/svg">
<g id="icons">
<path id="Icon (Stroke)" fill-rule="evenodd" clip-rule="evenodd" d="M10.6654 10.6066C11.0559 10.2161 11.6891 10.2161 12.0796 10.6066L17.0294 15.5564L21.9791 10.6066C22.3696 10.2161 23.0028 10.2161 23.3933 10.6066C23.7839 10.9971 23.7839 11.6303 23.3933 12.0208L18.4436 16.9706L23.3933 21.9203C23.7839 22.3109 23.7839 22.944 23.3933 23.3345C23.0028 23.7251 22.3696 23.7251 21.9791 23.3345L17.0294 18.3848L12.0796 23.3345C11.6891 23.7251 11.0559 23.7251 10.6654 23.3345C10.2749 22.944 10.2749 22.3109 10.6654 21.9203L15.6152 16.9706L10.6654 12.0208C10.2749 11.6303 10.2749 10.9971 10.6654 10.6066Z" fill="black"/>
</g>
</svg>
