<svg width="27" height="27" viewBox="0 0 27 27" fill="none" xmlns="http://www.w3.org/2000/svg">
<path d="M4.16142 6.24463C3.3441 6.76193 2.82595 7.64121 2.76941 8.60683V17.7182C2.82595 18.6838 3.3441 19.5631 4.16142 20.0804L12.3363 24.653C13.2145 25.0832 14.2422 25.0832 15.1204 24.653L23.3037 20.0804C24.1211 19.5631 24.6392 18.6838 24.6958 17.7182V8.60683C24.6392 7.64121 24.1211 6.76193 23.3037 6.24463L15.1288 1.67207C14.2507 1.2418 13.2229 1.2418 12.3448 1.67207L4.16142 6.24463Z" fill="#14BF96"/>
<path d="M22.1311 10.9015C17.5923 10.9015 14.2008 14.6641 14.2008 19.2789V19.4729H13.2897V19.2789C13.2897 14.6641 9.91508 10.9184 5.3424 10.9015C5.3424 11.1883 5.3424 11.4836 5.3424 11.7451C5.32407 15.2363 7.47692 18.3714 10.7419 19.6079C11.7121 19.9637 12.7372 20.1464 13.7705 20.1478C14.8122 20.1464 15.8456 19.9637 16.8245 19.6079C20.0846 18.3666 22.2328 15.2334 22.2155 11.7451C22.1732 11.4752 22.1564 11.1883 22.1311 10.9015Z" fill="white"/>
<path d="M13.7367 11.2558C15.1345 11.2558 16.2677 10.1227 16.2677 8.72491C16.2677 7.32711 15.1345 6.19397 13.7367 6.19397C12.3389 6.19397 11.2058 7.32711 11.2058 8.72491C11.2058 10.1227 12.3389 11.2558 13.7367 11.2558Z" fill="white"/>
</svg>
