<svg width="23" height="24" viewBox="0 0 23 24" fill="none" xmlns="http://www.w3.org/2000/svg">
<path d="M1.13301 14.6334C0.899093 16.1218 1.9449 17.1548 3.22536 17.6697C8.13439 19.6434 14.9658 19.6434 19.8748 17.6697C21.1553 17.1548 22.2011 16.1218 21.9672 14.6334C21.8234 13.7188 21.1126 12.9571 20.5859 12.2134C19.8961 11.2273 19.8276 10.1517 19.8275 9.00735C19.8275 4.58501 16.1216 1 11.5501 1C6.97864 1 3.27274 4.58501 3.27274 9.00735C3.27264 10.1517 3.20409 11.2273 2.51427 12.2134C1.98762 12.9571 1.27677 13.7188 1.13301 14.6334Z" stroke="black" stroke-width="1.65" stroke-linecap="round" stroke-linejoin="round"/>
<path d="M8.25 21.8999C9.12575 22.584 10.2822 22.9999 11.55 22.9999C12.8178 22.9999 13.9743 22.584 14.85 21.8999" stroke="black" stroke-width="1.65" stroke-linecap="round" stroke-linejoin="round"/>
</svg>
