<svg width="25" height="25" viewBox="0 0 25 25" fill="none" xmlns="http://www.w3.org/2000/svg">
<path d="M12.3584 11.0238L12.3584 20.0238" stroke="#E95B47" stroke-width="1.5" stroke-linecap="round"/>
<path d="M14.3584 9.0238C14.3584 10.1284 13.463 11.0238 12.3584 11.0238C11.2538 11.0238 10.3584 10.1284 10.3584 9.0238C10.3584 7.91923 11.2538 7.0238 12.3584 7.0238C13.463 7.0238 14.3584 7.91923 14.3584 9.0238Z" stroke="#E95B47" stroke-width="1.5"/>
<path d="M17.3172 6.0238C17.977 6.89341 18.3584 7.92181 18.3584 9.0238C18.3584 10.1258 17.977 11.1542 17.3172 12.0238M7.39957 6.0238C6.73983 6.89341 6.3584 7.92181 6.3584 9.0238C6.3584 10.1258 6.73983 11.1542 7.39957 12.0238" stroke="#E95B47" stroke-width="1.5" stroke-linecap="round" stroke-linejoin="round"/>
<path d="M20.6743 4.0238C21.738 5.45388 22.3584 7.17365 22.3584 9.0238C22.3584 10.874 21.738 12.5937 20.6743 14.0238M4.04248 4.0238C2.97876 5.45388 2.3584 7.17365 2.3584 9.0238C2.3584 10.874 2.97876 12.5937 4.04248 14.0238" stroke="#E95B47" stroke-width="1.5" stroke-linecap="round" stroke-linejoin="round"/>
</svg>
