<svg width="1439" height="596" viewBox="0 0 1439 596" fill="none" xmlns="http://www.w3.org/2000/svg">
<path d="M0 553.251C0 568.214 0 575.696 2.91211 581.412C5.47368 586.439 9.56104 590.526 14.5884 593.088C20.3037 596 27.7855 596 42.7491 596H1388.19C1414.68 596 1427.93 596 1435.12 590.494C1441.38 585.699 1445.2 578.384 1445.56 570.506C1445.98 561.46 1438.41 550.587 1423.29 528.841L1135.94 115.691C1131.75 109.671 1129.65 106.66 1126.96 104.39C1124.58 102.378 1121.86 100.799 1118.94 99.7241C1115.63 98.5111 1111.98 98.1821 1104.68 97.524L46.585 2.19702C30.426 0.741198 22.3465 0.0132859 16.1087 2.71214C10.6287 5.08313 6.10083 9.22141 3.24768 14.4665C0 20.437 0 28.5492 0 44.7737V553.251Z" fill="#231E54"/>
</svg>
