<svg width="567" height="576" viewBox="0 0 567 576" fill="none" xmlns="http://www.w3.org/2000/svg">
<path fill-rule="evenodd" clip-rule="evenodd" d="M50.9045 277C43.0263 292.6 34.4631 330.624 45.7047 362.15C51.3441 377.965 60.2077 389.874 69.818 399.452L70.9416 343.95L71.7047 306.25L120.455 281.55L159.406 293.25C163.753 284.471 168.633 275.828 173.949 267.9C171.258 265.054 169.034 262.344 167.956 260.993C167.55 260.484 167.599 259.756 168.06 259.295L188.264 239.091C188.543 238.812 188.931 238.675 189.32 238.739C190.772 238.978 194.526 239.768 197.632 241.9C197.632 241.9 220.555 236.7 236.155 241.9C238.451 242.665 240.492 243.502 242.315 244.5C242.315 244.5 257.605 241.25 263.455 242.55C268.266 243.619 269.993 248.059 270.605 252.95C271.255 258.15 270.605 271.8 270.605 271.8C270.795 271.8 270.984 271.8 271.174 271.8C272.986 271.8 274.777 271.8 276.762 271.891C278.602 271.975 280.609 272.137 282.955 272.45C288.292 273.162 290.999 276.27 292.055 281.55C292.61 284.326 291.531 288.315 289.705 292.6C285.116 303.364 275.805 316 275.805 316L341.455 330.95V368.65V445.006C361.74 425.886 372.36 408.563 374.604 379.7C377.311 344.892 363.571 312.75 350.554 287.4C332.589 252.414 303.754 234.14 279.054 223.05C254.354 211.96 214.705 204.2 178.305 204.2C141.904 204.2 110.054 219.15 91.2045 230.85C72.3546 242.55 58.7827 261.4 50.9045 277Z" fill="#FBAD36"/>
<path d="M120.455 281.55L71.7048 306.25M120.455 281.55L159.407 293.25M120.455 281.55V320.97M71.7048 306.25L70.9417 343.95M71.7048 306.25L120.455 320.97M291.405 531.8L69.4109 467.079C68.8468 466.914 68.4631 466.392 68.475 465.804L69.3627 421.95M291.405 531.8L340.928 495.14C341.26 494.895 341.455 494.507 341.455 494.095V453.8M291.405 531.8V484.35M341.455 330.95L275.805 316M341.455 330.95L291.405 358.25M341.455 330.95V368.65M275.805 316C275.805 316 285.116 303.364 289.705 292.6M275.805 316C266.994 318.269 261.101 318.751 256.305 317.2M291.405 358.25V396.6M291.405 358.25L252.405 350.729M291.405 396.6L341.455 368.65M291.405 396.6V484.35M341.455 368.65V453.8M291.405 484.35L341.455 453.8M291.405 484.35L184.484 454.302M197.632 241.9C194.527 239.767 190.772 238.978 189.32 238.739C188.931 238.675 188.543 238.812 188.264 239.091L168.06 259.295C167.599 259.756 167.55 260.484 167.956 260.993C169.034 262.344 171.258 265.053 173.949 267.9M197.632 241.9C198.664 242.609 199.624 243.466 200.405 244.5C207.043 253.298 198.455 269.85 195.855 273.1C192.621 277.143 187.223 278.48 182.855 275.7C179.877 273.805 176.673 270.782 173.949 267.9M197.632 241.9C197.632 241.9 220.555 236.7 236.155 241.9C238.451 242.665 240.492 243.502 242.315 244.5M245.255 308.593C247.676 311.56 249.947 313.8 252.405 315.358M255.005 302.35C246.719 308.697 240.021 311.711 229.655 313.108M217.305 314.05C222.011 313.883 226.054 313.593 229.655 313.108M276.762 271.891C278.602 271.975 280.609 272.137 282.955 272.45C288.292 273.162 290.999 276.27 292.055 281.55C292.61 284.326 291.532 288.315 289.705 292.6M276.762 271.891C276.43 283.049 279.37 287.533 289.705 292.6M276.762 271.891C274.57 271.791 272.615 271.801 270.605 271.8M229.655 313.108C229.655 313.108 227.549 324.213 233.555 327.7C241.507 332.318 252.405 315.358 252.405 315.358M252.405 315.358C253.643 316.143 254.929 316.755 256.305 317.2M173.949 267.9C161.41 286.602 151.29 309.282 144.897 328.35M256.305 317.2C256.305 317.2 258.255 343.3 256.305 349.15C255.689 350.997 254.2 351.049 252.405 350.729M252.405 350.729C249.314 350.178 245.315 348.527 243.305 353.05C241.584 356.921 236.201 371.462 228.634 383.469M144.897 328.35C140.397 341.775 137.743 353.409 137.394 360.604M144.897 328.35L120.455 320.97M70.9417 343.95L69.3627 421.95M70.9417 343.95L123.705 357.173M291.405 399.2L228.634 383.469M228.634 383.469C225.347 388.685 221.647 393.423 217.657 396.6M196.877 375.511C198.144 359.193 203.711 340.619 204.305 338.75C204.878 336.946 182.205 333.55 179.605 336.15C178.087 337.668 170.145 353.586 162.244 366.831M196.877 375.511L162.244 366.831M196.877 375.511C196.299 382.963 196.617 389.945 198.717 394.65M162.244 366.831C156.612 376.274 151.001 384.359 147.755 384.9C142.979 385.696 140.152 383.08 138.679 377.202M137.394 360.604C137.368 361.145 137.355 361.66 137.355 362.15C137.355 368.45 137.746 373.48 138.679 377.202M137.394 360.604L123.705 357.173M69.3627 421.95L113.339 434.309M123.705 357.173C110.221 388.197 108.133 415.754 113.339 434.309M198.717 394.65C200.124 397.804 202.331 399.936 205.605 400.5C209.815 401.226 213.867 399.617 217.657 396.6M198.717 394.65C186.621 420.945 174.138 438.212 162.51 448.127M138.679 377.202C128.026 402.255 125.214 423 127.581 438.311M217.657 396.6C208.539 423.97 196.645 442.851 184.484 454.302M113.339 434.309C120.197 458.747 139.709 467.569 162.51 448.127M127.581 438.311L162.51 448.127M127.581 438.311C132.434 469.697 159.046 478.254 184.484 454.302M80.8048 405.7V411.55M78.8548 451.2V458.35M279.705 410.25V416.75M268.655 423.25V430.4M279.705 430.4V436.9M326.505 483.05L332.355 479.8M322.605 496.05L327.805 493.45M220.555 265.95V276.35M236.155 265.95V276.35M314.805 274.4C325.803 264.404 331.563 259.745 339.505 256.85M324.555 287.4C336.917 286.018 342.876 285.629 350.555 286.1M320.655 303.65C331.133 304.205 336.469 305.412 345.355 308.593M242.315 244.5C246.464 246.773 249.475 249.884 251.755 254.9C255.005 262.05 251.446 270.218 258.905 271.15C263.823 271.765 267.288 271.798 270.605 271.8M242.315 244.5C242.315 244.5 257.605 241.25 263.455 242.55C268.266 243.619 269.994 248.059 270.605 252.95C271.255 258.15 270.605 271.8 270.605 271.8" stroke="black" stroke-width="6.5" stroke-linecap="round"/>
<path fill-rule="evenodd" clip-rule="evenodd" d="M312.569 23.4761C288.026 35.4408 266.173 71.7985 259.977 112.214C255.066 144.251 259.514 175.029 270.996 194.471C279.722 209.245 294.853 222.44 313.045 229.562C313.186 228.746 313.336 227.94 313.516 227.158C313.739 226.184 315.293 226.19 315.612 227.137C315.863 227.884 316.084 228.7 316.316 229.554C316.434 229.992 316.556 230.439 316.685 230.892C321.33 232.467 326.153 233.645 331.102 234.354C336.718 235.158 341.636 235.616 346.03 235.739C338.855 225.168 336.317 211.447 340.618 194.435C335.599 194.343 331.652 193.559 329.098 191.979C316.05 183.905 307.176 175.338 302.385 164.893C307.224 167.124 312.778 168.714 319.081 169.545C327.226 170.618 337.159 169.827 348.131 167.626C355.553 147.911 368.265 130.847 383.253 116.745C372.595 117.557 362.695 125.214 354.633 131.45C347.711 136.804 342.143 141.11 338.615 139.135C330.601 134.648 336.11 106.73 338.615 99.7509C339.345 97.7149 340.477 95.1141 341.795 92.0838L341.795 92.0836L341.795 92.0833C344.996 84.7263 349.297 74.8382 351.638 64.3554C353.641 55.3819 357.78 36.5018 344.625 26.9658C334.002 19.265 324.371 17.7225 312.569 23.4761ZM406.855 124.685C394.33 135.298 383.072 147.528 374.678 160.346C389.227 155.444 404.45 149.012 419.05 141.839C416.953 136.374 412.978 129.762 406.855 124.685ZM454.325 122.305C451.536 116.257 448.981 109.702 447.305 101.745C447.086 100.706 446.891 99.6889 446.717 98.6932C464.402 90.3697 481.511 86.6201 494.426 89.7803C487.503 99.1083 472.775 110.778 454.325 122.305ZM466.607 150.2C480.411 141.522 491.592 132.322 497.778 123.35C497.857 123.236 497.907 123.109 497.933 122.973C501.259 105.212 500.606 95.9489 498.335 79.8098C497.674 67.1909 474.786 66.9778 446.67 77.4217C449.676 63.9127 458.853 57.1211 467.34 52.3907C479.862 45.4113 497.393 48.901 506.91 55.3819C516.426 61.8628 530.952 79.3113 539.467 94.7656C547.981 110.22 556.219 136.138 555.996 174.53C555.976 177.928 555.977 181.333 555.977 184.733C555.986 223.968 555.995 262.736 524.44 286.201C508.722 297.888 496.391 301.156 482.367 299.661C471.891 298.544 460.297 295.758 451.969 279.044C463.274 276.01 473.926 271.747 482.92 266.521C483.205 266.356 483.382 266.063 483.406 265.735L484.263 253.796L484.738 247.179C484.795 246.383 483.946 245.84 483.246 246.221C471.735 252.473 458.771 257.027 445.452 259.812C445.228 258.829 445.011 257.821 444.801 256.787C440.489 235.617 447.844 225.008 455.584 213.844C461.331 205.554 467.291 196.957 468.843 183.504C470.467 169.43 469.216 159.031 466.607 150.2ZM418.366 174.474C398.742 182.496 378.86 188.736 362.58 191.979C353.65 209.276 349.592 223.774 349.281 235.768C363.29 235.611 371.824 231.657 381.69 224.383C395.214 214.412 413.246 189.486 416.251 181.51C416.956 179.637 417.69 177.214 418.366 174.474ZM302.385 164.893C259.08 144.936 272.913 73.7683 318.186 37.6424C318.658 37.266 319.353 37.3967 319.66 37.9161L328.821 53.4169C328.994 53.7095 329.003 54.0765 328.851 54.3804C301.017 110.002 291.868 141.968 302.385 164.893ZM511.99 173.135C511.671 172.188 510.117 172.182 509.894 173.155C509.618 174.359 509.411 175.614 509.201 176.884C508.286 182.431 507.327 188.243 500.398 191.082C499.592 191.413 499.816 193.357 500.687 193.357C507.41 193.357 511.99 198.56 513.922 207.035C514.15 208.036 515.412 207.798 515.459 206.773C515.702 201.453 516.315 193.412 522.011 190.186C522.923 189.67 522.937 187.406 521.936 187.094C515.259 185.017 513.85 179.816 512.694 175.552C512.463 174.698 512.241 173.882 511.99 173.135Z" fill="#FBAD36"/>
<path d="M348.131 167.625C337.159 169.826 327.226 170.618 319.081 169.545C312.778 168.714 307.224 167.123 302.385 164.893M348.131 167.625C378.416 87.1733 496.819 50.8722 498.335 79.8097M348.131 167.625C356.488 165.949 365.447 163.455 374.678 160.345M498.335 79.8097C498.399 81.0238 498.257 82.3527 497.894 83.798C497.175 85.6509 496.003 87.6548 494.426 89.7803M498.335 79.8097C500.606 95.9489 501.259 105.212 497.933 122.973C497.907 123.109 497.857 123.236 497.778 123.35C477.967 152.085 406.919 183.147 362.58 191.979M340.618 194.434C335.599 194.343 331.652 193.558 329.098 191.979C316.05 183.905 307.176 175.338 302.385 164.893M340.618 194.434C346.599 194.543 354.101 193.667 362.58 191.979M340.618 194.434C335.712 213.843 339.706 228.967 349.332 240.018M362.58 191.979C352.568 211.372 348.68 227.245 349.332 240.018M494.426 89.7803C478.742 110.913 422.994 144.068 374.678 160.345M494.426 89.7803C461.831 81.8038 402.509 117.847 374.678 160.345M308.061 74.8244L305.557 79.8097M316.576 60.3671L313.571 65.8509M305.557 64.3553L302.051 70.3377M327.095 179.017L330.601 183.504M338.615 180.512L340.618 184.999M490.881 111.716L484.871 115.704M474.853 123.182L469.344 127.668M487.876 123.182L482.367 127.668M474.853 258.283L469.344 260.776M465.337 266.259L458.324 269.251M484.263 253.796L484.738 247.179C484.795 246.383 483.946 245.84 483.246 246.221C439.502 269.982 374.763 269.216 349.332 240.018M484.263 253.796L483.406 265.735C483.382 266.063 483.205 266.356 482.92 266.521C438.101 292.559 352.12 294.701 349.332 240.018M484.263 253.796C489.596 251.261 493.219 249.071 496.002 246.318M501.901 237.345C500.851 239.67 499.778 241.62 498.552 243.327M496.002 246.318C496.002 246.318 499.891 255.913 505.407 257.286C509.414 258.283 515.925 255.79 516.426 249.309C516.705 245.699 515.925 242.829 512.92 241.333C507.853 238.811 498.552 243.327 498.552 243.327M496.002 246.318C496.935 245.396 497.774 244.41 498.552 243.327M482.367 175.029C482.324 178.213 481.252 180.76 476.857 190.186M474.853 179.017C476.65 182.747 477.456 184.771 484.263 190.186M291.532 220.395V233.855M282.517 230.864C289.691 228.827 293.637 227.48 300.047 223.386M302.385 164.893C259.08 144.936 272.913 73.7683 318.186 37.6423C318.658 37.266 319.353 37.3967 319.66 37.9161L328.821 53.4169C328.994 53.7095 329.003 54.0764 328.851 54.3804C301.017 110.002 291.868 141.968 302.385 164.893ZM522.011 190.186C516.315 193.412 515.702 201.453 515.459 206.773C515.412 207.798 514.15 208.036 513.922 207.035C511.99 198.56 507.41 193.356 500.687 193.356C499.816 193.356 499.592 191.413 500.398 191.082C508.913 187.593 508.412 179.616 509.894 173.155C510.117 172.181 511.671 172.188 511.99 173.135C513.496 177.608 513.922 184.601 521.936 187.094C522.937 187.406 522.923 189.67 522.011 190.186ZM325.633 244.188C319.937 247.414 319.324 255.455 319.081 260.776C319.034 261.8 317.772 262.038 317.544 261.037C315.612 252.562 311.032 247.359 304.309 247.359C303.438 247.359 303.214 245.415 304.02 245.084C312.535 241.595 312.034 233.618 313.516 227.157C313.739 226.184 315.293 226.19 315.612 227.137C317.118 231.61 317.544 238.604 325.558 241.096C326.559 241.408 326.544 243.672 325.633 244.188Z" stroke="black" stroke-width="5" stroke-linecap="round"/>
</svg>
