<svg width="34" height="34" viewBox="0 0 34 34" fill="none" xmlns="http://www.w3.org/2000/svg">
<path fill-rule="evenodd" clip-rule="evenodd" d="M10.6655 10.6065C11.056 10.216 11.6892 10.216 12.0797 10.6065L17.0294 15.5562L21.9792 10.6065C22.3697 10.216 23.0029 10.216 23.3934 10.6065C23.7839 10.997 23.7839 11.6302 23.3934 12.0207L18.4436 16.9705L23.3934 21.9202C23.7839 22.3107 23.7839 22.9439 23.3934 23.3344C23.0029 23.7249 22.3697 23.7249 21.9792 23.3344L17.0294 18.3847L12.0797 23.3344C11.6892 23.7249 11.056 23.7249 10.6655 23.3344C10.275 22.9439 10.275 22.3107 10.6655 21.9202L15.6152 16.9705L10.6655 12.0207C10.275 11.6302 10.275 10.997 10.6655 10.6065Z" fill="black"/>
</svg>
